<?xml version="1.0" encoding="UTF-8"?>
<svg xmlns="http://www.w3.org/2000/svg" viewBox="0 0 1200 900" preserveAspectRatio="xMidYMid meet">
<defs>
  <pattern id="grid" x="0" y="0" width="40" height="40" patternUnits="userSpaceOnUse">
    <path d="M40 0 L0 0 0 40" fill="none" stroke="#E2E8F0" stroke-width="0.5"/>
  </pattern>
  <pattern id="grid-major" x="0" y="0" width="200" height="200" patternUnits="userSpaceOnUse">
    <path d="M200 0 L0 0 0 200" fill="none" stroke="#CBD5E1" stroke-width="0.8"/>
  </pattern>
</defs>

<!-- Page background -->
<rect width="1200" height="900" fill="#FCFCFD"/>
<!-- Light grid (faint) -->
<rect width="1200" height="900" fill="url(#grid)" opacity="0.6"/>
<rect width="1200" height="900" fill="url(#grid-major)" opacity="0.45"/>

<!-- Outer border -->
<rect x="20" y="20" width="1160" height="860" fill="none" stroke="#0F172A" stroke-width="2"/>
<!-- Inner drawing border -->
<rect x="40" y="40" width="1120" height="820" fill="none" stroke="#0F172A" stroke-width="0.8"/>


<g transform="translate(60, 90)">
  <text x="0" y="-2" fill="#0F172A" font-family="Inter, sans-serif" font-size="14" font-weight="700">SITE PLAN  &#x2014;  GRADING &amp; UTILITIES</text>
  <!-- Site boundary -->
  <rect x="0" y="20" width="720" height="540" fill="#FAFCFA" stroke="#0F172A" stroke-width="2" stroke-dasharray="14 6"/>
  <!-- Building footprint -->
  <rect x="160" y="120" width="400" height="240" fill="#F1F5F9" stroke="#0F172A" stroke-width="2"/>
  <text x="360" y="248" text-anchor="middle" fill="#475569" font-family="Inter, sans-serif" font-size="14" font-weight="700">PROPOSED</text>
  <text x="360" y="266" text-anchor="middle" fill="#475569" font-family="Inter, sans-serif" font-size="14" font-weight="700">BUILDING</text>
  <text x="360" y="282" text-anchor="middle" fill="#94A3B8" font-family="Inter, sans-serif" font-size="10">FFE 12.50</text>
  <!-- Sidewalks -->
  <rect x="160" y="370" width="400" height="20" fill="#FFFFFF" stroke="#94A3B8" stroke-width="0.8" stroke-dasharray="4 3"/>
  <text x="360" y="384" text-anchor="middle" fill="#94A3B8" font-family="Inter, sans-serif" font-size="9">CONCRETE WALK (TYP.)</text>
  <!-- Parking spaces -->
  <g stroke="#0F172A" stroke-width="0.8">
    <line x1="0" y1="420" x2="720" y2="420"/>
    <line x1="0" y1="500" x2="720" y2="500"/><line x1="30" y1="420" x2="30" y2="500"/><line x1="70" y1="420" x2="70" y2="500"/><line x1="110" y1="420" x2="110" y2="500"/><line x1="150" y1="420" x2="150" y2="500"/><line x1="190" y1="420" x2="190" y2="500"/><line x1="230" y1="420" x2="230" y2="500"/><line x1="270" y1="420" x2="270" y2="500"/><line x1="310" y1="420" x2="310" y2="500"/><line x1="350" y1="420" x2="350" y2="500"/><line x1="390" y1="420" x2="390" y2="500"/><line x1="430" y1="420" x2="430" y2="500"/><line x1="470" y1="420" x2="470" y2="500"/><line x1="510" y1="420" x2="510" y2="500"/><line x1="550" y1="420" x2="550" y2="500"/><line x1="590" y1="420" x2="590" y2="500"/><line x1="630" y1="420" x2="630" y2="500"/><line x1="670" y1="420" x2="670" y2="500"/><line x1="710" y1="420" x2="710" y2="500"/>
  </g>
  <text x="20" y="486" fill="#94A3B8" font-family="Inter, sans-serif" font-size="9">PARKING (18 SPACES)</text>
  <!-- Utility lines -->
  <line x1="0" y1="80" x2="720" y2="80" stroke="#2563EB" stroke-width="1.4" stroke-dasharray="10 4"/>
  <text x="14" y="74" fill="#1E40AF" font-family="Inter, sans-serif" font-size="9" font-weight="700">DOMESTIC WATER (DW)  6&#34;</text>
  <line x1="0" y1="100" x2="720" y2="100" stroke="#D97706" stroke-width="1.4" stroke-dasharray="6 6"/>
  <text x="14" y="94" fill="#9A6E0F" font-family="Inter, sans-serif" font-size="9" font-weight="700">GAS LINE (G)  4&#34;</text>
  <line x1="0" y1="540" x2="720" y2="540" stroke="#16A34A" stroke-width="1.4" stroke-dasharray="3 3"/>
  <text x="14" y="534" fill="#0F5E2D" font-family="Inter, sans-serif" font-size="9" font-weight="700">SANITARY (SAN)  8&#34;</text>
  <!-- Contour lines -->
  <path d="M 0 200 Q 200 180, 360 200 T 720 220" fill="none" stroke="#94A3B8" stroke-width="0.6"/>
  <path d="M 0 330 Q 240 310, 400 330 T 720 350" fill="none" stroke="#94A3B8" stroke-width="0.6"/>
  <text x="100" y="195" fill="#94A3B8" font-family="Inter, sans-serif" font-size="8">12.0</text>
  <text x="100" y="325" fill="#94A3B8" font-family="Inter, sans-serif" font-size="8">11.0</text>
  <!-- North arrow -->
  <g transform="translate(650, 70)">
    <circle cx="0" cy="0" r="22" fill="#FFFFFF" stroke="#0F172A" stroke-width="0.8"/>
    <polygon points="0,-18 6,8 0,2 -6,8" fill="#0F172A"/>
    <text x="0" y="-26" text-anchor="middle" fill="#0F172A" font-family="Inter, sans-serif" font-size="9" font-weight="700">N</text>
  </g>
</g>


<!-- Title block (bottom-right) -->
<g transform="translate(820, 720)">
  <rect width="340" height="140" fill="#FFFFFF" stroke="#0F172A" stroke-width="1.2"/>
  <!-- Header bar -->
  <rect width="340" height="26" fill="#0a1929"/>
  <text x="12" y="18" fill="#E8A020" font-family="Inter, -apple-system, sans-serif" font-size="12" font-weight="700" letter-spacing="0.6">FLIKT.AI &#x2014; DEMO SHEET</text>
  <!-- Inner grid: project/sheet/date/scale -->
  <line x1="0" y1="26" x2="340" y2="26" stroke="#0F172A" stroke-width="0.8"/>
  <line x1="0" y1="62" x2="340" y2="62" stroke="#0F172A" stroke-width="0.5"/>
  <line x1="0" y1="98" x2="340" y2="98" stroke="#0F172A" stroke-width="0.5"/>
  <line x1="170" y1="62" x2="170" y2="140" stroke="#0F172A" stroke-width="0.5"/>
  <text x="10" y="42" fill="#64748B" font-family="Inter, sans-serif" font-size="8" letter-spacing="0.5">PROJECT</text>
  <text x="10" y="56" fill="#0F172A" font-family="Inter, sans-serif" font-size="11" font-weight="600">Demo Coordination Set</text>
  <text x="10" y="78" fill="#64748B" font-family="Inter, sans-serif" font-size="8" letter-spacing="0.5">SHEET</text>
  <text x="10" y="92" fill="#0F172A" font-family="Inter, sans-serif" font-size="13" font-weight="700">C-101</text>
  <text x="10" y="114" fill="#64748B" font-family="Inter, sans-serif" font-size="8" letter-spacing="0.5">TITLE</text>
  <text x="10" y="128" fill="#0F172A" font-family="Inter, sans-serif" font-size="9" font-weight="600">SITE PLAN — GRADING & UTIL.</text>
  <text x="180" y="78" fill="#64748B" font-family="Inter, sans-serif" font-size="8" letter-spacing="0.5">DATE</text>
  <text x="180" y="92" fill="#0F172A" font-family="Inter, sans-serif" font-size="10" font-weight="600">2026-05-14</text>
  <text x="180" y="114" fill="#64748B" font-family="Inter, sans-serif" font-size="8" letter-spacing="0.5">SCALE</text>
  <text x="180" y="128" fill="#0F172A" font-family="Inter, sans-serif" font-size="10" font-weight="600">AS NOTED</text>
</g>

<!-- DEMO watermark (large, diagonal, very light) -->
<g transform="translate(600 450) rotate(-22)">
  <text x="0" y="0" text-anchor="middle" fill="#E2E8F0" opacity="0.55" font-family="Inter, sans-serif" font-size="180" font-weight="900" letter-spacing="20">DEMO</text>
</g>

<!-- Sheet label (top-right) -->
<g transform="translate(1100, 50)">
  <rect x="-60" y="-22" width="60" height="28" fill="#0a1929"/>
  <text x="-30" y="-3" text-anchor="middle" fill="#E8A020" font-family="Inter, sans-serif" font-size="14" font-weight="700">C-101</text>
</g>

<!-- Discipline tag (top-left) -->
<g transform="translate(50, 50)">
  <rect width="160" height="28" fill="#F1F5F9" stroke="#CBD5E1" stroke-width="0.8"/>
  <text x="80" y="19" text-anchor="middle" fill="#0F172A" font-family="Inter, sans-serif" font-size="11" font-weight="700" letter-spacing="1.2">CIVIL</text>
</g>
</svg>
