<?xml version="1.0" encoding="UTF-8"?>
<svg xmlns="http://www.w3.org/2000/svg" viewBox="0 0 1200 900" preserveAspectRatio="xMidYMid meet">
<defs>
  <pattern id="grid" x="0" y="0" width="40" height="40" patternUnits="userSpaceOnUse">
    <path d="M40 0 L0 0 0 40" fill="none" stroke="#E2E8F0" stroke-width="0.5"/>
  </pattern>
  <pattern id="grid-major" x="0" y="0" width="200" height="200" patternUnits="userSpaceOnUse">
    <path d="M200 0 L0 0 0 200" fill="none" stroke="#CBD5E1" stroke-width="0.8"/>
  </pattern>
</defs>

<!-- Page background -->
<rect width="1200" height="900" fill="#FCFCFD"/>
<!-- Light grid (faint) -->
<rect width="1200" height="900" fill="url(#grid)" opacity="0.6"/>
<rect width="1200" height="900" fill="url(#grid-major)" opacity="0.45"/>

<!-- Outer border -->
<rect x="20" y="20" width="1160" height="860" fill="none" stroke="#0F172A" stroke-width="2"/>
<!-- Inner drawing border -->
<rect x="40" y="40" width="1120" height="820" fill="none" stroke="#0F172A" stroke-width="0.8"/>


<g transform="translate(60, 90)">
  <text x="0" y="-2" fill="#0F172A" font-family="Inter, sans-serif" font-size="14" font-weight="700">LEVEL 2 FRAMING PLAN  &#x2014;  W12x26 TYP. U.N.O.</text>
  <line x1="108" y1="110" x2="192" y2="110" stroke="#0F172A" stroke-width="1.4"/><line x1="108" y1="220" x2="192" y2="220" stroke="#0F172A" stroke-width="1.4"/><line x1="108" y1="330" x2="192" y2="330" stroke="#0F172A" stroke-width="1.4"/><line x1="108" y1="440" x2="192" y2="440" stroke="#0F172A" stroke-width="1.4"/><line x1="108" y1="550" x2="192" y2="550" stroke="#0F172A" stroke-width="1.4"/><line x1="208" y1="110" x2="292" y2="110" stroke="#0F172A" stroke-width="1.4"/><line x1="208" y1="220" x2="292" y2="220" stroke="#0F172A" stroke-width="1.4"/><line x1="208" y1="330" x2="292" y2="330" stroke="#0F172A" stroke-width="1.4"/><line x1="208" y1="440" x2="292" y2="440" stroke="#0F172A" stroke-width="1.4"/><line x1="208" y1="550" x2="292" y2="550" stroke="#0F172A" stroke-width="1.4"/><line x1="308" y1="110" x2="392" y2="110" stroke="#0F172A" stroke-width="1.4"/><line x1="308" y1="220" x2="392" y2="220" stroke="#0F172A" stroke-width="1.4"/><line x1="308" y1="330" x2="392" y2="330" stroke="#0F172A" stroke-width="1.4"/><line x1="308" y1="440" x2="392" y2="440" stroke="#0F172A" stroke-width="1.4"/><line x1="308" y1="550" x2="392" y2="550" stroke="#0F172A" stroke-width="1.4"/><line x1="408" y1="110" x2="492" y2="110" stroke="#0F172A" stroke-width="1.4"/><line x1="408" y1="220" x2="492" y2="220" stroke="#0F172A" stroke-width="1.4"/><line x1="408" y1="330" x2="492" y2="330" stroke="#0F172A" stroke-width="1.4"/><line x1="408" y1="440" x2="492" y2="440" stroke="#0F172A" stroke-width="1.4"/><line x1="408" y1="550" x2="492" y2="550" stroke="#0F172A" stroke-width="1.4"/><line x1="508" y1="110" x2="592" y2="110" stroke="#0F172A" stroke-width="1.4"/><line x1="508" y1="220" x2="592" y2="220" stroke="#0F172A" stroke-width="1.4"/><line x1="508" y1="330" x2="592" y2="330" stroke="#0F172A" stroke-width="1.4"/><line x1="508" y1="440" x2="592" y2="440" stroke="#0F172A" stroke-width="1.4"/><line x1="508" y1="550" x2="592" y2="550" stroke="#0F172A" stroke-width="1.4"/><line x1="608" y1="110" x2="692" y2="110" stroke="#0F172A" stroke-width="1.4"/><line x1="608" y1="220" x2="692" y2="220" stroke="#0F172A" stroke-width="1.4"/><line x1="608" y1="330" x2="692" y2="330" stroke="#0F172A" stroke-width="1.4"/><line x1="608" y1="440" x2="692" y2="440" stroke="#0F172A" stroke-width="1.4"/><line x1="608" y1="550" x2="692" y2="550" stroke="#0F172A" stroke-width="1.4"/><line x1="100" y1="118" x2="100" y2="212" stroke="#0F172A" stroke-width="1.4"/><line x1="200" y1="118" x2="200" y2="212" stroke="#0F172A" stroke-width="1.4"/><line x1="300" y1="118" x2="300" y2="212" stroke="#0F172A" stroke-width="1.4"/><line x1="400" y1="118" x2="400" y2="212" stroke="#0F172A" stroke-width="1.4"/><line x1="500" y1="118" x2="500" y2="212" stroke="#0F172A" stroke-width="1.4"/><line x1="600" y1="118" x2="600" y2="212" stroke="#0F172A" stroke-width="1.4"/><line x1="700" y1="118" x2="700" y2="212" stroke="#0F172A" stroke-width="1.4"/><line x1="100" y1="228" x2="100" y2="322" stroke="#0F172A" stroke-width="1.4"/><line x1="200" y1="228" x2="200" y2="322" stroke="#0F172A" stroke-width="1.4"/><line x1="300" y1="228" x2="300" y2="322" stroke="#0F172A" stroke-width="1.4"/><line x1="400" y1="228" x2="400" y2="322" stroke="#0F172A" stroke-width="1.4"/><line x1="500" y1="228" x2="500" y2="322" stroke="#0F172A" stroke-width="1.4"/><line x1="600" y1="228" x2="600" y2="322" stroke="#0F172A" stroke-width="1.4"/><line x1="700" y1="228" x2="700" y2="322" stroke="#0F172A" stroke-width="1.4"/><line x1="100" y1="338" x2="100" y2="432" stroke="#0F172A" stroke-width="1.4"/><line x1="200" y1="338" x2="200" y2="432" stroke="#0F172A" stroke-width="1.4"/><line x1="300" y1="338" x2="300" y2="432" stroke="#0F172A" stroke-width="1.4"/><line x1="400" y1="338" x2="400" y2="432" stroke="#0F172A" stroke-width="1.4"/><line x1="500" y1="338" x2="500" y2="432" stroke="#0F172A" stroke-width="1.4"/><line x1="600" y1="338" x2="600" y2="432" stroke="#0F172A" stroke-width="1.4"/><line x1="700" y1="338" x2="700" y2="432" stroke="#0F172A" stroke-width="1.4"/><line x1="100" y1="448" x2="100" y2="542" stroke="#0F172A" stroke-width="1.4"/><line x1="200" y1="448" x2="200" y2="542" stroke="#0F172A" stroke-width="1.4"/><line x1="300" y1="448" x2="300" y2="542" stroke="#0F172A" stroke-width="1.4"/><line x1="400" y1="448" x2="400" y2="542" stroke="#0F172A" stroke-width="1.4"/><line x1="500" y1="448" x2="500" y2="542" stroke="#0F172A" stroke-width="1.4"/><line x1="600" y1="448" x2="600" y2="542" stroke="#0F172A" stroke-width="1.4"/><line x1="700" y1="448" x2="700" y2="542" stroke="#0F172A" stroke-width="1.4"/>
  
  <circle cx="100" cy="110" r="6" fill="#0F172A"/>
  <text x="86" y="114" fill="#0F172A" font-family="Inter, sans-serif" font-size="10" font-weight="700">A-1</text>
  <circle cx="200" cy="110" r="6" fill="#0F172A"/>
  <text x="186" y="114" fill="#0F172A" font-family="Inter, sans-serif" font-size="10" font-weight="700">A-2</text>
  <circle cx="300" cy="110" r="6" fill="#0F172A"/>
  <text x="286" y="114" fill="#0F172A" font-family="Inter, sans-serif" font-size="10" font-weight="700">A-3</text>
  <circle cx="400" cy="110" r="6" fill="#0F172A"/>
  <text x="386" y="114" fill="#0F172A" font-family="Inter, sans-serif" font-size="10" font-weight="700">A-4</text>
  <circle cx="500" cy="110" r="6" fill="#0F172A"/>
  <text x="486" y="114" fill="#0F172A" font-family="Inter, sans-serif" font-size="10" font-weight="700">A-5</text>
  <circle cx="600" cy="110" r="6" fill="#0F172A"/>
  <text x="586" y="114" fill="#0F172A" font-family="Inter, sans-serif" font-size="10" font-weight="700">A-6</text>
  <circle cx="700" cy="110" r="6" fill="#0F172A"/>
  <text x="686" y="114" fill="#0F172A" font-family="Inter, sans-serif" font-size="10" font-weight="700">A-7</text>
  <circle cx="100" cy="220" r="6" fill="#0F172A"/>
  <text x="86" y="224" fill="#0F172A" font-family="Inter, sans-serif" font-size="10" font-weight="700">B-1</text>
  <circle cx="200" cy="220" r="6" fill="#0F172A"/>
  <text x="186" y="224" fill="#0F172A" font-family="Inter, sans-serif" font-size="10" font-weight="700">B-2</text>
  <circle cx="300" cy="220" r="6" fill="#0F172A"/>
  <text x="286" y="224" fill="#0F172A" font-family="Inter, sans-serif" font-size="10" font-weight="700">B-3</text>
  <circle cx="400" cy="220" r="6" fill="#0F172A"/>
  <text x="386" y="224" fill="#0F172A" font-family="Inter, sans-serif" font-size="10" font-weight="700">B-4</text>
  <circle cx="500" cy="220" r="6" fill="#0F172A"/>
  <text x="486" y="224" fill="#0F172A" font-family="Inter, sans-serif" font-size="10" font-weight="700">B-5</text>
  <circle cx="600" cy="220" r="6" fill="#0F172A"/>
  <text x="586" y="224" fill="#0F172A" font-family="Inter, sans-serif" font-size="10" font-weight="700">B-6</text>
  <circle cx="700" cy="220" r="6" fill="#0F172A"/>
  <text x="686" y="224" fill="#0F172A" font-family="Inter, sans-serif" font-size="10" font-weight="700">B-7</text>
  <circle cx="100" cy="330" r="6" fill="#0F172A"/>
  <text x="86" y="334" fill="#0F172A" font-family="Inter, sans-serif" font-size="10" font-weight="700">C-1</text>
  <circle cx="200" cy="330" r="6" fill="#0F172A"/>
  <text x="186" y="334" fill="#0F172A" font-family="Inter, sans-serif" font-size="10" font-weight="700">C-2</text>
  <circle cx="300" cy="330" r="6" fill="#0F172A"/>
  <text x="286" y="334" fill="#0F172A" font-family="Inter, sans-serif" font-size="10" font-weight="700">C-3</text>
  <circle cx="400" cy="330" r="6" fill="#0F172A"/>
  <text x="386" y="334" fill="#0F172A" font-family="Inter, sans-serif" font-size="10" font-weight="700">C-4</text>
  <circle cx="500" cy="330" r="6" fill="#0F172A"/>
  <text x="486" y="334" fill="#0F172A" font-family="Inter, sans-serif" font-size="10" font-weight="700">C-5</text>
  <circle cx="600" cy="330" r="6" fill="#0F172A"/>
  <text x="586" y="334" fill="#0F172A" font-family="Inter, sans-serif" font-size="10" font-weight="700">C-6</text>
  <circle cx="700" cy="330" r="6" fill="#0F172A"/>
  <text x="686" y="334" fill="#0F172A" font-family="Inter, sans-serif" font-size="10" font-weight="700">C-7</text>
  <circle cx="100" cy="440" r="6" fill="#0F172A"/>
  <text x="86" y="444" fill="#0F172A" font-family="Inter, sans-serif" font-size="10" font-weight="700">D-1</text>
  <circle cx="200" cy="440" r="6" fill="#0F172A"/>
  <text x="186" y="444" fill="#0F172A" font-family="Inter, sans-serif" font-size="10" font-weight="700">D-2</text>
  <circle cx="300" cy="440" r="6" fill="#0F172A"/>
  <text x="286" y="444" fill="#0F172A" font-family="Inter, sans-serif" font-size="10" font-weight="700">D-3</text>
  <circle cx="400" cy="440" r="6" fill="#0F172A"/>
  <text x="386" y="444" fill="#0F172A" font-family="Inter, sans-serif" font-size="10" font-weight="700">D-4</text>
  <circle cx="500" cy="440" r="6" fill="#0F172A"/>
  <text x="486" y="444" fill="#0F172A" font-family="Inter, sans-serif" font-size="10" font-weight="700">D-5</text>
  <circle cx="600" cy="440" r="6" fill="#0F172A"/>
  <text x="586" y="444" fill="#0F172A" font-family="Inter, sans-serif" font-size="10" font-weight="700">D-6</text>
  <circle cx="700" cy="440" r="6" fill="#0F172A"/>
  <text x="686" y="444" fill="#0F172A" font-family="Inter, sans-serif" font-size="10" font-weight="700">D-7</text>
  <circle cx="100" cy="550" r="6" fill="#0F172A"/>
  <text x="86" y="554" fill="#0F172A" font-family="Inter, sans-serif" font-size="10" font-weight="700">E-1</text>
  <circle cx="200" cy="550" r="6" fill="#0F172A"/>
  <text x="186" y="554" fill="#0F172A" font-family="Inter, sans-serif" font-size="10" font-weight="700">E-2</text>
  <circle cx="300" cy="550" r="6" fill="#0F172A"/>
  <text x="286" y="554" fill="#0F172A" font-family="Inter, sans-serif" font-size="10" font-weight="700">E-3</text>
  <circle cx="400" cy="550" r="6" fill="#0F172A"/>
  <text x="386" y="554" fill="#0F172A" font-family="Inter, sans-serif" font-size="10" font-weight="700">E-4</text>
  <circle cx="500" cy="550" r="6" fill="#0F172A"/>
  <text x="486" y="554" fill="#0F172A" font-family="Inter, sans-serif" font-size="10" font-weight="700">E-5</text>
  <circle cx="600" cy="550" r="6" fill="#0F172A"/>
  <text x="586" y="554" fill="#0F172A" font-family="Inter, sans-serif" font-size="10" font-weight="700">E-6</text>
  <circle cx="700" cy="550" r="6" fill="#0F172A"/>
  <text x="686" y="554" fill="#0F172A" font-family="Inter, sans-serif" font-size="10" font-weight="700">E-7</text>
  <!-- Beam size callouts -->
  <text x="155" y="106" fill="#475569" font-family="Inter, sans-serif" font-size="8">W12x26</text>
  <text x="255" y="106" fill="#475569" font-family="Inter, sans-serif" font-size="8">W14x30</text>
  <text x="355" y="106" fill="#475569" font-family="Inter, sans-serif" font-size="8">W16x36</text>
  <text x="155" y="216" fill="#475569" font-family="Inter, sans-serif" font-size="8">W12x26</text>
  <text x="255" y="216" fill="#475569" font-family="Inter, sans-serif" font-size="8">W12x26</text>
  <text x="355" y="216" fill="#475569" font-family="Inter, sans-serif" font-size="8">W12x26</text>
  <!-- Slab outline -->
  <rect x="80" y="90" width="640" height="450" fill="none" stroke="#94A3B8" stroke-width="0.8" stroke-dasharray="6 4"/>
</g>

<!-- Detail callout boxes -->
<g transform="translate(80, 580)">
  <text x="0" y="-4" fill="#0F172A" font-family="Inter, sans-serif" font-size="13" font-weight="700">TYPICAL CONNECTION DETAILS</text>
  <rect x="0" y="10" width="220" height="100" fill="#FFFFFF" stroke="#0F172A" stroke-width="1"/>
  <text x="14" y="32" fill="#0F172A" font-family="Inter, sans-serif" font-size="10" font-weight="700">BEAM-TO-COLUMN</text>
  <text x="14" y="48" fill="#64748B" font-family="Inter, sans-serif" font-size="9">DOUBLE-ANGLE SHEAR TAB</text>
  <text x="14" y="62" fill="#64748B" font-family="Inter, sans-serif" font-size="9">A325-N BOLTS, TYP.</text>
  <text x="14" y="95" fill="#94A3B8" font-family="Inter, sans-serif" font-size="9">REF. 1/S-501</text>
  <rect x="240" y="10" width="220" height="100" fill="#FFFFFF" stroke="#0F172A" stroke-width="1"/>
  <text x="254" y="32" fill="#0F172A" font-family="Inter, sans-serif" font-size="10" font-weight="700">BASE PLATE</text>
  <text x="254" y="48" fill="#64748B" font-family="Inter, sans-serif" font-size="9">1&#34; A572 GR.50</text>
  <text x="254" y="62" fill="#64748B" font-family="Inter, sans-serif" font-size="9">4 x 1-1/4&#34; ANCHOR ROD</text>
  <text x="254" y="95" fill="#94A3B8" font-family="Inter, sans-serif" font-size="9">REF. 2/S-501</text>
  <rect x="480" y="10" width="220" height="100" fill="#FFFFFF" stroke="#0F172A" stroke-width="1"/>
  <text x="494" y="32" fill="#0F172A" font-family="Inter, sans-serif" font-size="10" font-weight="700">SLAB EDGE</text>
  <text x="494" y="48" fill="#64748B" font-family="Inter, sans-serif" font-size="9">5&#34; CONC. NWT</text>
  <text x="494" y="62" fill="#64748B" font-family="Inter, sans-serif" font-size="9">3VLI20 DECK</text>
  <text x="494" y="95" fill="#94A3B8" font-family="Inter, sans-serif" font-size="9">REF. 3/S-501</text>
</g>


<!-- Title block (bottom-right) -->
<g transform="translate(820, 720)">
  <rect width="340" height="140" fill="#FFFFFF" stroke="#0F172A" stroke-width="1.2"/>
  <!-- Header bar -->
  <rect width="340" height="26" fill="#0a1929"/>
  <text x="12" y="18" fill="#E8A020" font-family="Inter, -apple-system, sans-serif" font-size="12" font-weight="700" letter-spacing="0.6">FLIKT.AI &#x2014; DEMO SHEET</text>
  <!-- Inner grid: project/sheet/date/scale -->
  <line x1="0" y1="26" x2="340" y2="26" stroke="#0F172A" stroke-width="0.8"/>
  <line x1="0" y1="62" x2="340" y2="62" stroke="#0F172A" stroke-width="0.5"/>
  <line x1="0" y1="98" x2="340" y2="98" stroke="#0F172A" stroke-width="0.5"/>
  <line x1="170" y1="62" x2="170" y2="140" stroke="#0F172A" stroke-width="0.5"/>
  <text x="10" y="42" fill="#64748B" font-family="Inter, sans-serif" font-size="8" letter-spacing="0.5">PROJECT</text>
  <text x="10" y="56" fill="#0F172A" font-family="Inter, sans-serif" font-size="11" font-weight="600">Demo Coordination Set</text>
  <text x="10" y="78" fill="#64748B" font-family="Inter, sans-serif" font-size="8" letter-spacing="0.5">SHEET</text>
  <text x="10" y="92" fill="#0F172A" font-family="Inter, sans-serif" font-size="13" font-weight="700">S-201</text>
  <text x="10" y="114" fill="#64748B" font-family="Inter, sans-serif" font-size="8" letter-spacing="0.5">TITLE</text>
  <text x="10" y="128" fill="#0F172A" font-family="Inter, sans-serif" font-size="9" font-weight="600">FRAMING PLAN — LEVEL 2</text>
  <text x="180" y="78" fill="#64748B" font-family="Inter, sans-serif" font-size="8" letter-spacing="0.5">DATE</text>
  <text x="180" y="92" fill="#0F172A" font-family="Inter, sans-serif" font-size="10" font-weight="600">2026-05-14</text>
  <text x="180" y="114" fill="#64748B" font-family="Inter, sans-serif" font-size="8" letter-spacing="0.5">SCALE</text>
  <text x="180" y="128" fill="#0F172A" font-family="Inter, sans-serif" font-size="10" font-weight="600">AS NOTED</text>
</g>

<!-- DEMO watermark (large, diagonal, very light) -->
<g transform="translate(600 450) rotate(-22)">
  <text x="0" y="0" text-anchor="middle" fill="#E2E8F0" opacity="0.55" font-family="Inter, sans-serif" font-size="180" font-weight="900" letter-spacing="20">DEMO</text>
</g>

<!-- Sheet label (top-right) -->
<g transform="translate(1100, 50)">
  <rect x="-60" y="-22" width="60" height="28" fill="#0a1929"/>
  <text x="-30" y="-3" text-anchor="middle" fill="#E8A020" font-family="Inter, sans-serif" font-size="14" font-weight="700">S-201</text>
</g>

<!-- Discipline tag (top-left) -->
<g transform="translate(50, 50)">
  <rect width="160" height="28" fill="#F1F5F9" stroke="#CBD5E1" stroke-width="0.8"/>
  <text x="80" y="19" text-anchor="middle" fill="#0F172A" font-family="Inter, sans-serif" font-size="11" font-weight="700" letter-spacing="1.2">STRUCTURAL</text>
</g>
</svg>
