<?xml version="1.0" encoding="UTF-8"?>
<svg xmlns="http://www.w3.org/2000/svg" viewBox="0 0 1200 900" preserveAspectRatio="xMidYMid meet">
<defs>
  <pattern id="grid" x="0" y="0" width="40" height="40" patternUnits="userSpaceOnUse">
    <path d="M40 0 L0 0 0 40" fill="none" stroke="#E2E8F0" stroke-width="0.5"/>
  </pattern>
  <pattern id="grid-major" x="0" y="0" width="200" height="200" patternUnits="userSpaceOnUse">
    <path d="M200 0 L0 0 0 200" fill="none" stroke="#CBD5E1" stroke-width="0.8"/>
  </pattern>
</defs>

<!-- Page background -->
<rect width="1200" height="900" fill="#FCFCFD"/>
<!-- Light grid (faint) -->
<rect width="1200" height="900" fill="url(#grid)" opacity="0.6"/>
<rect width="1200" height="900" fill="url(#grid-major)" opacity="0.45"/>

<!-- Outer border -->
<rect x="20" y="20" width="1160" height="860" fill="none" stroke="#0F172A" stroke-width="2"/>
<!-- Inner drawing border -->
<rect x="40" y="40" width="1120" height="820" fill="none" stroke="#0F172A" stroke-width="0.8"/>


<!-- Duct layout (top half) -->
<g transform="translate(80, 110)">
  <text x="0" y="-2" fill="#0F172A" font-family="Inter, sans-serif" font-size="14" font-weight="700">LEVEL 2 HVAC LAYOUT  &#x2014;  RTU-1 SUPPLY/RETURN</text>
  <!-- Outer building -->
  <rect x="0" y="20" width="720" height="320" fill="none" stroke="#0F172A" stroke-width="2"/>
  <!-- Main supply duct (red-ish line for SA) -->
  <rect x="20" y="60" width="680" height="14" fill="#FEF3C7" stroke="#D97706" stroke-width="1"/>
  <text x="350" y="71" text-anchor="middle" fill="#9A6E0F" font-family="Inter, sans-serif" font-size="9" font-weight="700">SA  24x12</text>
  <!-- Branch supply ducts -->
  <rect x="120" y="74" width="10" height="80" fill="#FEF3C7" stroke="#D97706" stroke-width="0.8"/>
  <rect x="280" y="74" width="10" height="120" fill="#FEF3C7" stroke="#D97706" stroke-width="0.8"/>
  <rect x="440" y="74" width="10" height="100" fill="#FEF3C7" stroke="#D97706" stroke-width="0.8"/>
  <rect x="600" y="74" width="10" height="140" fill="#FEF3C7" stroke="#D97706" stroke-width="0.8"/>
  <!-- Return air -->
  <rect x="20" y="280" width="680" height="14" fill="#DBEAFE" stroke="#2563EB" stroke-width="1"/>
  <text x="350" y="291" text-anchor="middle" fill="#1E40AF" font-family="Inter, sans-serif" font-size="9" font-weight="700">RA  24x16</text>
  <!-- VAV boxes -->
  <rect x="105" y="150" width="40" height="30" fill="#FFFFFF" stroke="#0F172A" stroke-width="1.2"/>
  <text x="125" y="170" text-anchor="middle" fill="#0F172A" font-family="Inter, sans-serif" font-size="9" font-weight="700">VAV-1</text>
  <rect x="265" y="190" width="40" height="30" fill="#FFFFFF" stroke="#0F172A" stroke-width="1.2"/>
  <text x="285" y="210" text-anchor="middle" fill="#0F172A" font-family="Inter, sans-serif" font-size="9" font-weight="700">VAV-2</text>
  <rect x="425" y="170" width="40" height="30" fill="#FFFFFF" stroke="#0F172A" stroke-width="1.2"/>
  <text x="445" y="190" text-anchor="middle" fill="#0F172A" font-family="Inter, sans-serif" font-size="9" font-weight="700">VAV-3</text>
  <rect x="585" y="210" width="40" height="30" fill="#FFFFFF" stroke="#0F172A" stroke-width="1.2"/>
  <text x="605" y="230" text-anchor="middle" fill="#0F172A" font-family="Inter, sans-serif" font-size="9" font-weight="700">VAV-4</text>
  <!-- Diffusers -->
  <g fill="#FFFFFF" stroke="#0F172A" stroke-width="0.8">
    <rect x="60" y="220" width="24" height="24"/><line x1="60" y1="220" x2="84" y2="244"/><line x1="60" y1="244" x2="84" y2="220"/>
    <rect x="180" y="220" width="24" height="24"/><line x1="180" y1="220" x2="204" y2="244"/><line x1="180" y1="244" x2="204" y2="220"/>
    <rect x="340" y="240" width="24" height="24"/><line x1="340" y1="240" x2="364" y2="264"/><line x1="340" y1="264" x2="364" y2="240"/>
    <rect x="500" y="230" width="24" height="24"/><line x1="500" y1="230" x2="524" y2="254"/><line x1="500" y1="254" x2="524" y2="230"/>
    <rect x="640" y="230" width="24" height="24"/><line x1="640" y1="230" x2="664" y2="254"/><line x1="640" y1="254" x2="664" y2="230"/>
  </g>
</g>

<!-- Equipment schedule (bottom) -->
<g transform="translate(80, 470)">
  <text x="0" y="-2" fill="#0F172A" font-family="Inter, sans-serif" font-size="14" font-weight="700">MECHANICAL EQUIPMENT SCHEDULE</text>
  <rect x="0" y="20" width="700" height="22" fill="#0a1929"/>
  <text x="14" y="35" fill="#E8A020" font-family="Inter, sans-serif" font-size="10" font-weight="700">TAG</text>
  <text x="80" y="35" fill="#E8A020" font-family="Inter, sans-serif" font-size="10" font-weight="700">DESCRIPTION</text>
  <text x="340" y="35" fill="#E8A020" font-family="Inter, sans-serif" font-size="10" font-weight="700">CAPACITY</text>
  <text x="490" y="35" fill="#E8A020" font-family="Inter, sans-serif" font-size="10" font-weight="700">MFR.</text>
  <text x="610" y="35" fill="#E8A020" font-family="Inter, sans-serif" font-size="10" font-weight="700">MODEL</text>
<rect x="0" y="42" width="700" height="26" fill="#FFFFFF"/><text x="14" y="59" fill="#0F172A" font-family="Inter, sans-serif" font-size="11" font-weight="700">RTU-1</text><text x="80" y="59" fill="#0F172A" font-family="Inter, sans-serif" font-size="11">ROOFTOP UNIT (PACKAGED)</text><text x="340" y="59" fill="#0F172A" font-family="Inter, sans-serif" font-size="11">12 TONS / 144 MBH</text><text x="490" y="59" fill="#0F172A" font-family="Inter, sans-serif" font-size="11">TRANE</text><text x="610" y="59" fill="#0F172A" font-family="Inter, sans-serif" font-size="11">WSC120</text><rect x="0" y="68" width="700" height="26" fill="#F8FAFC"/><text x="14" y="85" fill="#0F172A" font-family="Inter, sans-serif" font-size="11" font-weight="700">VAV-1</text><text x="80" y="85" fill="#0F172A" font-family="Inter, sans-serif" font-size="11">VAV BOX W/ HOT WATER COIL</text><text x="340" y="85" fill="#0F172A" font-family="Inter, sans-serif" font-size="11">400 CFM</text><text x="490" y="85" fill="#0F172A" font-family="Inter, sans-serif" font-size="11">TITUS</text><text x="610" y="85" fill="#0F172A" font-family="Inter, sans-serif" font-size="11">DESV</text><rect x="0" y="94" width="700" height="26" fill="#FFFFFF"/><text x="14" y="111" fill="#0F172A" font-family="Inter, sans-serif" font-size="11" font-weight="700">EF-1</text><text x="80" y="111" fill="#0F172A" font-family="Inter, sans-serif" font-size="11">EXHAUST FAN</text><text x="340" y="111" fill="#0F172A" font-family="Inter, sans-serif" font-size="11">600 CFM @ 0.4 IN</text><text x="490" y="111" fill="#0F172A" font-family="Inter, sans-serif" font-size="11">GREENHECK</text><text x="610" y="111" fill="#0F172A" font-family="Inter, sans-serif" font-size="11">CUE-100</text><rect x="0" y="120" width="700" height="26" fill="#F8FAFC"/><text x="14" y="137" fill="#0F172A" font-family="Inter, sans-serif" font-size="11" font-weight="700">WH-1</text><text x="80" y="137" fill="#0F172A" font-family="Inter, sans-serif" font-size="11">GAS WATER HEATER</text><text x="340" y="137" fill="#0F172A" font-family="Inter, sans-serif" font-size="11">199 MBH / 75 GAL</text><text x="490" y="137" fill="#0F172A" font-family="Inter, sans-serif" font-size="11">RHEEM</text><text x="610" y="137" fill="#0F172A" font-family="Inter, sans-serif" font-size="11">G75-200</text>
  <rect x="0" y="20" width="700" height="130" fill="none" stroke="#0F172A" stroke-width="1.2"/>
</g>


<!-- Title block (bottom-right) -->
<g transform="translate(820, 720)">
  <rect width="340" height="140" fill="#FFFFFF" stroke="#0F172A" stroke-width="1.2"/>
  <!-- Header bar -->
  <rect width="340" height="26" fill="#0a1929"/>
  <text x="12" y="18" fill="#E8A020" font-family="Inter, -apple-system, sans-serif" font-size="12" font-weight="700" letter-spacing="0.6">FLIKT.AI &#x2014; DEMO SHEET</text>
  <!-- Inner grid: project/sheet/date/scale -->
  <line x1="0" y1="26" x2="340" y2="26" stroke="#0F172A" stroke-width="0.8"/>
  <line x1="0" y1="62" x2="340" y2="62" stroke="#0F172A" stroke-width="0.5"/>
  <line x1="0" y1="98" x2="340" y2="98" stroke="#0F172A" stroke-width="0.5"/>
  <line x1="170" y1="62" x2="170" y2="140" stroke="#0F172A" stroke-width="0.5"/>
  <text x="10" y="42" fill="#64748B" font-family="Inter, sans-serif" font-size="8" letter-spacing="0.5">PROJECT</text>
  <text x="10" y="56" fill="#0F172A" font-family="Inter, sans-serif" font-size="11" font-weight="600">Demo Coordination Set</text>
  <text x="10" y="78" fill="#64748B" font-family="Inter, sans-serif" font-size="8" letter-spacing="0.5">SHEET</text>
  <text x="10" y="92" fill="#0F172A" font-family="Inter, sans-serif" font-size="13" font-weight="700">M-201</text>
  <text x="10" y="114" fill="#64748B" font-family="Inter, sans-serif" font-size="8" letter-spacing="0.5">TITLE</text>
  <text x="10" y="128" fill="#0F172A" font-family="Inter, sans-serif" font-size="9" font-weight="600">HVAC LAYOUT — LEVEL 2</text>
  <text x="180" y="78" fill="#64748B" font-family="Inter, sans-serif" font-size="8" letter-spacing="0.5">DATE</text>
  <text x="180" y="92" fill="#0F172A" font-family="Inter, sans-serif" font-size="10" font-weight="600">2026-05-14</text>
  <text x="180" y="114" fill="#64748B" font-family="Inter, sans-serif" font-size="8" letter-spacing="0.5">SCALE</text>
  <text x="180" y="128" fill="#0F172A" font-family="Inter, sans-serif" font-size="10" font-weight="600">AS NOTED</text>
</g>

<!-- DEMO watermark (large, diagonal, very light) -->
<g transform="translate(600 450) rotate(-22)">
  <text x="0" y="0" text-anchor="middle" fill="#E2E8F0" opacity="0.55" font-family="Inter, sans-serif" font-size="180" font-weight="900" letter-spacing="20">DEMO</text>
</g>

<!-- Sheet label (top-right) -->
<g transform="translate(1100, 50)">
  <rect x="-60" y="-22" width="60" height="28" fill="#0a1929"/>
  <text x="-30" y="-3" text-anchor="middle" fill="#E8A020" font-family="Inter, sans-serif" font-size="14" font-weight="700">M-201</text>
</g>

<!-- Discipline tag (top-left) -->
<g transform="translate(50, 50)">
  <rect width="160" height="28" fill="#F1F5F9" stroke="#CBD5E1" stroke-width="0.8"/>
  <text x="80" y="19" text-anchor="middle" fill="#0F172A" font-family="Inter, sans-serif" font-size="11" font-weight="700" letter-spacing="1.2">MECHANICAL</text>
</g>
</svg>
