<?xml version="1.0" encoding="UTF-8"?>
<svg xmlns="http://www.w3.org/2000/svg" viewBox="0 0 1200 900" preserveAspectRatio="xMidYMid meet">
<defs>
  <pattern id="grid" x="0" y="0" width="40" height="40" patternUnits="userSpaceOnUse">
    <path d="M40 0 L0 0 0 40" fill="none" stroke="#E2E8F0" stroke-width="0.5"/>
  </pattern>
  <pattern id="grid-major" x="0" y="0" width="200" height="200" patternUnits="userSpaceOnUse">
    <path d="M200 0 L0 0 0 200" fill="none" stroke="#CBD5E1" stroke-width="0.8"/>
  </pattern>
</defs>

<!-- Page background -->
<rect width="1200" height="900" fill="#FCFCFD"/>
<!-- Light grid (faint) -->
<rect width="1200" height="900" fill="url(#grid)" opacity="0.6"/>
<rect width="1200" height="900" fill="url(#grid-major)" opacity="0.45"/>

<!-- Outer border -->
<rect x="20" y="20" width="1160" height="860" fill="none" stroke="#0F172A" stroke-width="2"/>
<!-- Inner drawing border -->
<rect x="40" y="40" width="1120" height="820" fill="none" stroke="#0F172A" stroke-width="0.8"/>


<g transform="translate(80, 110)">
  <!-- Title -->
  <text x="0" y="-2" fill="#0F172A" font-family="Inter, sans-serif" font-size="14" font-weight="700">PLUMBING FIXTURE SCHEDULE</text>
  <!-- Header row -->
  <rect x="0" y="20" width="700" height="22" fill="#0a1929"/>
  <text x="14" y="35" fill="#E8A020" font-family="Inter, sans-serif" font-size="10" font-weight="700" letter-spacing="0.5">MARK</text>
  <text x="80" y="35" fill="#E8A020" font-family="Inter, sans-serif" font-size="10" font-weight="700" letter-spacing="0.5">DESCRIPTION</text>
  <text x="380" y="35" fill="#E8A020" font-family="Inter, sans-serif" font-size="10" font-weight="700" letter-spacing="0.5">FLOW</text>
  <text x="490" y="35" fill="#E8A020" font-family="Inter, sans-serif" font-size="10" font-weight="700" letter-spacing="0.5">HOT</text>
  <text x="540" y="35" fill="#E8A020" font-family="Inter, sans-serif" font-size="10" font-weight="700" letter-spacing="0.5">SUPPLY</text>
  <text x="620" y="35" fill="#E8A020" font-family="Inter, sans-serif" font-size="10" font-weight="700" letter-spacing="0.5">DRAIN</text>
  
  <rect x="0" y="47" width="700" height="26" fill="#FFFFFF"/>
  <text x="14" y="64" fill="#0F172A" font-family="Inter, sans-serif" font-size="11" font-weight="700">WC-1</text>
  <text x="80" y="64" fill="#0F172A" font-family="Inter, sans-serif" font-size="11">WATER CLOSET (FLUSH VALVE)</text>
  <text x="380" y="64" fill="#0F172A" font-family="Inter, sans-serif" font-size="11">1.6 GPF</text>
  <text x="490" y="64" fill="#0F172A" font-family="Inter, sans-serif" font-size="11">2</text>
  <text x="540" y="64" fill="#0F172A" font-family="Inter, sans-serif" font-size="11">1/2"</text>
  <text x="620" y="64" fill="#0F172A" font-family="Inter, sans-serif" font-size="11">4"</text>
  <line x1="0" y1="73" x2="700" y2="73" stroke="#E2E8F0" stroke-width="0.5"/>
  <rect x="0" y="73" width="700" height="26" fill="#F8FAFC"/>
  <text x="14" y="90" fill="#0F172A" font-family="Inter, sans-serif" font-size="11" font-weight="700">UR-1</text>
  <text x="80" y="90" fill="#0F172A" font-family="Inter, sans-serif" font-size="11">URINAL (FLUSH VALVE)</text>
  <text x="380" y="90" fill="#0F172A" font-family="Inter, sans-serif" font-size="11">0.5 GPF</text>
  <text x="490" y="90" fill="#0F172A" font-family="Inter, sans-serif" font-size="11">2</text>
  <text x="540" y="90" fill="#0F172A" font-family="Inter, sans-serif" font-size="11">1/2"</text>
  <text x="620" y="90" fill="#0F172A" font-family="Inter, sans-serif" font-size="11">2"</text>
  <line x1="0" y1="99" x2="700" y2="99" stroke="#E2E8F0" stroke-width="0.5"/>
  <rect x="0" y="99" width="700" height="26" fill="#FFFFFF"/>
  <text x="14" y="116" fill="#0F172A" font-family="Inter, sans-serif" font-size="11" font-weight="700">LAV-1</text>
  <text x="80" y="116" fill="#0F172A" font-family="Inter, sans-serif" font-size="11">LAVATORY</text>
  <text x="380" y="116" fill="#0F172A" font-family="Inter, sans-serif" font-size="11">1.5 GPM</text>
  <text x="490" y="116" fill="#0F172A" font-family="Inter, sans-serif" font-size="11">2</text>
  <text x="540" y="116" fill="#0F172A" font-family="Inter, sans-serif" font-size="11">3/8"</text>
  <text x="620" y="116" fill="#0F172A" font-family="Inter, sans-serif" font-size="11">1-1/2"</text>
  <line x1="0" y1="125" x2="700" y2="125" stroke="#E2E8F0" stroke-width="0.5"/>
  <rect x="0" y="125" width="700" height="26" fill="#F8FAFC"/>
  <text x="14" y="142" fill="#0F172A" font-family="Inter, sans-serif" font-size="11" font-weight="700">KS-1</text>
  <text x="80" y="142" fill="#0F172A" font-family="Inter, sans-serif" font-size="11">KITCHEN SINK (PRIVATE)</text>
  <text x="380" y="142" fill="#0F172A" font-family="Inter, sans-serif" font-size="11">2.2 GPM</text>
  <text x="490" y="142" fill="#0F172A" font-family="Inter, sans-serif" font-size="11">2</text>
  <text x="540" y="142" fill="#0F172A" font-family="Inter, sans-serif" font-size="11">3/8"</text>
  <text x="620" y="142" fill="#0F172A" font-family="Inter, sans-serif" font-size="11">1-1/2"</text>
  <line x1="0" y1="151" x2="700" y2="151" stroke="#E2E8F0" stroke-width="0.5"/>
  <rect x="0" y="151" width="700" height="26" fill="#FFFFFF"/>
  <text x="14" y="168" fill="#0F172A" font-family="Inter, sans-serif" font-size="11" font-weight="700">SH-1</text>
  <text x="80" y="168" fill="#0F172A" font-family="Inter, sans-serif" font-size="11">SHOWER</text>
  <text x="380" y="168" fill="#0F172A" font-family="Inter, sans-serif" font-size="11">2.0 GPM</text>
  <text x="490" y="168" fill="#0F172A" font-family="Inter, sans-serif" font-size="11">2</text>
  <text x="540" y="168" fill="#0F172A" font-family="Inter, sans-serif" font-size="11">1/2"</text>
  <text x="620" y="168" fill="#0F172A" font-family="Inter, sans-serif" font-size="11">2"</text>
  <line x1="0" y1="177" x2="700" y2="177" stroke="#E2E8F0" stroke-width="0.5"/>
  <rect x="0" y="177" width="700" height="26" fill="#F8FAFC"/>
  <text x="14" y="194" fill="#0F172A" font-family="Inter, sans-serif" font-size="11" font-weight="700">WB-1</text>
  <text x="80" y="194" fill="#0F172A" font-family="Inter, sans-serif" font-size="11">WASHER BOX</text>
  <text x="380" y="194" fill="#0F172A" font-family="Inter, sans-serif" font-size="11">4.0 GPM</text>
  <text x="490" y="194" fill="#0F172A" font-family="Inter, sans-serif" font-size="11">2</text>
  <text x="540" y="194" fill="#0F172A" font-family="Inter, sans-serif" font-size="11">1/2"</text>
  <text x="620" y="194" fill="#0F172A" font-family="Inter, sans-serif" font-size="11">2"</text>
  <line x1="0" y1="203" x2="700" y2="203" stroke="#E2E8F0" stroke-width="0.5"/>
  <rect x="0" y="203" width="700" height="26" fill="#FFFFFF"/>
  <text x="14" y="220" fill="#0F172A" font-family="Inter, sans-serif" font-size="11" font-weight="700">HB-1</text>
  <text x="80" y="220" fill="#0F172A" font-family="Inter, sans-serif" font-size="11">HOSE BIBB</text>
  <text x="380" y="220" fill="#0F172A" font-family="Inter, sans-serif" font-size="11">3.0 GPM</text>
  <text x="490" y="220" fill="#0F172A" font-family="Inter, sans-serif" font-size="11">1</text>
  <text x="540" y="220" fill="#0F172A" font-family="Inter, sans-serif" font-size="11">3/4"</text>
  <text x="620" y="220" fill="#0F172A" font-family="Inter, sans-serif" font-size="11">—</text>
  <line x1="0" y1="229" x2="700" y2="229" stroke="#E2E8F0" stroke-width="0.5"/>
  <!-- Table outer border -->
  <rect x="0" y="20" width="700" height="208" fill="none" stroke="#0F172A" stroke-width="1.2"/>
</g>

<!-- Second table: Drain Schedule -->
<g transform="translate(80, 410)">
  <text x="0" y="-2" fill="#0F172A" font-family="Inter, sans-serif" font-size="14" font-weight="700">PLUMBING DRAIN SCHEDULE</text>
  <rect x="0" y="20" width="700" height="22" fill="#0a1929"/>
  <text x="14" y="35" fill="#E8A020" font-family="Inter, sans-serif" font-size="10" font-weight="700">MARK</text>
  <text x="80" y="35" fill="#E8A020" font-family="Inter, sans-serif" font-size="10" font-weight="700">DESCRIPTION</text>
  <text x="320" y="35" fill="#E8A020" font-family="Inter, sans-serif" font-size="10" font-weight="700">MANUFACTURER</text>
  <text x="500" y="35" fill="#E8A020" font-family="Inter, sans-serif" font-size="10" font-weight="700">MODEL</text>
  <text x="620" y="35" fill="#E8A020" font-family="Inter, sans-serif" font-size="10" font-weight="700">SIZE</text>
  <rect x="0" y="42" width="700" height="26" fill="#FFFFFF"/><text x="14" y="59" fill="#0F172A" font-family="Inter, sans-serif" font-size="11" font-weight="700">FD-1</text><text x="80" y="59" fill="#0F172A" font-family="Inter, sans-serif" font-size="11">FLOOR DRAIN</text><text x="320" y="59" fill="#0F172A" font-family="Inter, sans-serif" font-size="11">ZURN</text><text x="500" y="59" fill="#0F172A" font-family="Inter, sans-serif" font-size="11">Z556</text><text x="620" y="59" fill="#0F172A" font-family="Inter, sans-serif" font-size="11">2"</text><rect x="0" y="68" width="700" height="26" fill="#F8FAFC"/><text x="14" y="85" fill="#0F172A" font-family="Inter, sans-serif" font-size="11" font-weight="700">FD-2</text><text x="80" y="85" fill="#0F172A" font-family="Inter, sans-serif" font-size="11">FLOOR DRAIN (LIGHT DUTY)</text><text x="320" y="85" fill="#0F172A" font-family="Inter, sans-serif" font-size="11">ZURN</text><text x="500" y="85" fill="#0F172A" font-family="Inter, sans-serif" font-size="11">Z415B</text><text x="620" y="85" fill="#0F172A" font-family="Inter, sans-serif" font-size="11">2"</text><rect x="0" y="94" width="700" height="26" fill="#FFFFFF"/><text x="14" y="111" fill="#0F172A" font-family="Inter, sans-serif" font-size="11" font-weight="700">HD-1</text><text x="80" y="111" fill="#0F172A" font-family="Inter, sans-serif" font-size="11">HUB DRAIN</text><text x="320" y="111" fill="#0F172A" font-family="Inter, sans-serif" font-size="11">ZURN</text><text x="500" y="111" fill="#0F172A" font-family="Inter, sans-serif" font-size="11">Z211</text><text x="620" y="111" fill="#0F172A" font-family="Inter, sans-serif" font-size="11">3"</text><rect x="0" y="120" width="700" height="26" fill="#F8FAFC"/><text x="14" y="137" fill="#0F172A" font-family="Inter, sans-serif" font-size="11" font-weight="700">RD-1</text><text x="80" y="137" fill="#0F172A" font-family="Inter, sans-serif" font-size="11">ROOF DRAIN</text><text x="320" y="137" fill="#0F172A" font-family="Inter, sans-serif" font-size="11">ZURN</text><text x="500" y="137" fill="#0F172A" font-family="Inter, sans-serif" font-size="11">Z164</text><text x="620" y="137" fill="#0F172A" font-family="Inter, sans-serif" font-size="11">4"</text>
  <rect x="0" y="20" width="700" height="130" fill="none" stroke="#0F172A" stroke-width="1.2"/>
</g>


<!-- Title block (bottom-right) -->
<g transform="translate(820, 720)">
  <rect width="340" height="140" fill="#FFFFFF" stroke="#0F172A" stroke-width="1.2"/>
  <!-- Header bar -->
  <rect width="340" height="26" fill="#0a1929"/>
  <text x="12" y="18" fill="#E8A020" font-family="Inter, -apple-system, sans-serif" font-size="12" font-weight="700" letter-spacing="0.6">FLIKT.AI &#x2014; DEMO SHEET</text>
  <!-- Inner grid: project/sheet/date/scale -->
  <line x1="0" y1="26" x2="340" y2="26" stroke="#0F172A" stroke-width="0.8"/>
  <line x1="0" y1="62" x2="340" y2="62" stroke="#0F172A" stroke-width="0.5"/>
  <line x1="0" y1="98" x2="340" y2="98" stroke="#0F172A" stroke-width="0.5"/>
  <line x1="170" y1="62" x2="170" y2="140" stroke="#0F172A" stroke-width="0.5"/>
  <text x="10" y="42" fill="#64748B" font-family="Inter, sans-serif" font-size="8" letter-spacing="0.5">PROJECT</text>
  <text x="10" y="56" fill="#0F172A" font-family="Inter, sans-serif" font-size="11" font-weight="600">Demo Coordination Set</text>
  <text x="10" y="78" fill="#64748B" font-family="Inter, sans-serif" font-size="8" letter-spacing="0.5">SHEET</text>
  <text x="10" y="92" fill="#0F172A" font-family="Inter, sans-serif" font-size="13" font-weight="700">P-501</text>
  <text x="10" y="114" fill="#64748B" font-family="Inter, sans-serif" font-size="8" letter-spacing="0.5">TITLE</text>
  <text x="10" y="128" fill="#0F172A" font-family="Inter, sans-serif" font-size="9" font-weight="600">PLUMBING SCHEDULES</text>
  <text x="180" y="78" fill="#64748B" font-family="Inter, sans-serif" font-size="8" letter-spacing="0.5">DATE</text>
  <text x="180" y="92" fill="#0F172A" font-family="Inter, sans-serif" font-size="10" font-weight="600">2026-05-14</text>
  <text x="180" y="114" fill="#64748B" font-family="Inter, sans-serif" font-size="8" letter-spacing="0.5">SCALE</text>
  <text x="180" y="128" fill="#0F172A" font-family="Inter, sans-serif" font-size="10" font-weight="600">AS NOTED</text>
</g>

<!-- DEMO watermark (large, diagonal, very light) -->
<g transform="translate(600 450) rotate(-22)">
  <text x="0" y="0" text-anchor="middle" fill="#E2E8F0" opacity="0.55" font-family="Inter, sans-serif" font-size="180" font-weight="900" letter-spacing="20">DEMO</text>
</g>

<!-- Sheet label (top-right) -->
<g transform="translate(1100, 50)">
  <rect x="-60" y="-22" width="60" height="28" fill="#0a1929"/>
  <text x="-30" y="-3" text-anchor="middle" fill="#E8A020" font-family="Inter, sans-serif" font-size="14" font-weight="700">P-501</text>
</g>

<!-- Discipline tag (top-left) -->
<g transform="translate(50, 50)">
  <rect width="160" height="28" fill="#F1F5F9" stroke="#CBD5E1" stroke-width="0.8"/>
  <text x="80" y="19" text-anchor="middle" fill="#0F172A" font-family="Inter, sans-serif" font-size="11" font-weight="700" letter-spacing="1.2">PLUMBING</text>
</g>
</svg>
